<?xml version="1.0" encoding="UTF-8" standalone="no"?>
<svg
   xmlns:dc="http://purl.org/dc/elements/1.1/"
   xmlns:cc="http://creativecommons.org/ns#"
   xmlns:rdf="http://www.w3.org/1999/02/22-rdf-syntax-ns#"
   xmlns:svg="http://www.w3.org/2000/svg"
   xmlns="http://www.w3.org/2000/svg"
   xmlns:sodipodi="http://sodipodi.sourceforge.net/DTD/sodipodi-0.dtd"
   xmlns:inkscape="http://www.inkscape.org/namespaces/inkscape"
   viewBox="0 0 104 83"
   version="1.1"
   id="svg52"
   sodipodi:docname="BATERIA_ELETRONICA2.svg"
   inkscape:version="0.92.4 (5da689c313, 2019-01-14)">
  <metadata
     id="metadata56">
    <rdf:RDF>
      <cc:Work
         rdf:about="">
        <dc:format>image/svg+xml</dc:format>
        <dc:type
           rdf:resource="http://purl.org/dc/dcmitype/StillImage" />
      </cc:Work>
    </rdf:RDF>
  </metadata>
  <sodipodi:namedview
     pagecolor="#ffffff"
     bordercolor="#666666"
     borderopacity="1"
     objecttolerance="10"
     gridtolerance="10"
     guidetolerance="10"
     inkscape:pageopacity="0"
     inkscape:pageshadow="2"
     inkscape:window-width="779"
     inkscape:window-height="480"
     id="namedview54"
     showgrid="false"
     inkscape:zoom="2.8433735"
     inkscape:cx="13.489407"
     inkscape:cy="41.5"
     inkscape:window-x="0"
     inkscape:window-y="27"
     inkscape:window-maximized="0"
     inkscape:current-layer="svg52" />
  <defs
     id="defs4">
    <style
       id="style2">.cls-1{stroke:#a62e3e;stroke-miterlimit:10;stroke-width:5px;}.cls-2{fill:#ff4d4d;}.cls-3{fill:#4a2964;}.cls-4{fill:#390830;}.cls-5{fill:#efd753;}.cls-6{fill:#a72e3e;}.cls-7{fill:none;}</style>
  </defs>
  <title
     id="title6">Asset 173</title>
  <g
     id="INSTRUMENTOS">
    <g
       id="bateria_eletronica_02">
      <rect
         style="stroke:#a62e3e;stroke-width:5px;stroke-miterlimit:10"
         id="rect8"
         rx="5"
         height="77.190002"
         width="97.75"
         y="3.03"
         x="2.8599999"
         class="cls-1" />
      <rect
         style="fill:#ff4d4d"
         id="rect10"
         rx="5"
         height="77.190002"
         width="97.75"
         y="3.03"
         x="2.8599999"
         class="cls-2" />
      <rect
         style="fill:#4a2964"
         id="rect12"
         rx="5"
         height="10.47"
         width="10.47"
         y="45.799999"
         x="28.33"
         class="cls-3" />
      <rect
         style="fill:#4a2964"
         id="rect14"
         rx="5"
         height="10.47"
         width="10.47"
         y="45.799999"
         x="46.5"
         class="cls-3" />
      <rect
         style="fill:#4a2964"
         id="rect16"
         rx="5"
         height="10.47"
         width="10.47"
         y="45.799999"
         x="64.68"
         class="cls-3" />
      <rect
         style="fill:#4a2964"
         id="rect18"
         rx="5"
         height="10.47"
         width="10.47"
         y="10.95"
         x="28.33"
         class="cls-3" />
      <rect
         style="fill:#4a2964"
         id="rect20"
         rx="5"
         height="10.47"
         width="10.47"
         y="10.95"
         x="46.5"
         class="cls-3" />
      <rect
         style="fill:#4a2964"
         id="rect22"
         rx="5"
         height="10.47"
         width="10.47"
         y="10.95"
         x="64.68"
         class="cls-3" />
      <rect
         style="fill:#4a2964"
         id="rect24"
         rx="5"
         height="10.47"
         width="10.47"
         y="28.379999"
         x="28.33"
         class="cls-3" />
      <rect
         style="fill:#4a2964"
         id="rect26"
         rx="5"
         height="10.47"
         width="10.47"
         y="28.379999"
         x="46.5"
         class="cls-3" />
      <rect
         style="fill:#4a2964"
         id="rect28"
         rx="5"
         height="10.47"
         width="10.47"
         y="28.379999"
         x="64.68"
         class="cls-3" />
      <rect
         style="fill:#390830"
         id="rect30"
         rx="1.02"
         height="21.870001"
         width="2.04"
         y="10.23"
         x="84.480003"
         class="cls-4" />
      <rect
         style="fill:#390830"
         id="rect32"
         rx="1.02"
         height="21.870001"
         width="2.04"
         y="10.23"
         x="90.949997"
         class="cls-4" />
      <rect
         style="fill:#390830"
         id="rect34"
         rx="4.6599998"
         height="9.3299999"
         width="53.939999"
         y="65.660004"
         x="24.77"
         class="cls-4" />
      <rect
         style="fill:#efd753"
         id="rect36"
         rx="0.92000002"
         height="1.84"
         width="5.4099998"
         y="11.14"
         x="7.5700002"
         class="cls-5" />
      <rect
         style="fill:#efd753"
         id="rect38"
         rx="0.92000002"
         height="1.84"
         width="5.4099998"
         y="11.14"
         x="16.65"
         class="cls-5" />
      <rect
         style="fill:#efd753"
         id="rect40"
         rx="0.92000002"
         height="1.84"
         width="5.4099998"
         y="16.700001"
         x="7.5700002"
         class="cls-5" />
      <rect
         style="fill:#efd753"
         id="rect42"
         rx="0.92000002"
         height="1.84"
         width="5.4099998"
         y="16.700001"
         x="16.65"
         class="cls-5" />
      <path
         style="fill:#a72e3e"
         inkscape:connector-curvature="0"
         id="path44"
         d="m 87.61,16.94 a 13.89,13.89 0 0 1 -4.22,0 0.9,0.9 0 0 1 -0.63,-1.18 l 0.33,-1.11 a 0.79,0.79 0 0 1 0.73,-0.6 h 3.36 a 0.79,0.79 0 0 1 0.73,0.6 l 0.33,1.11 a 0.92,0.92 0 0 1 -0.63,1.18 z"
         class="cls-6" />
      <path
         style="fill:#a72e3e"
         inkscape:connector-curvature="0"
         id="path46"
         d="m 94.08,16.94 a 13.89,13.89 0 0 1 -4.22,0 0.9,0.9 0 0 1 -0.63,-1.18 l 0.33,-1.11 a 0.79,0.79 0 0 1 0.73,-0.6 h 3.37 a 0.79,0.79 0 0 1 0.72,0.6 l 0.33,1.11 a 0.91,0.91 0 0 1 -0.63,1.18 z"
         class="cls-6" />
    </g>
    <rect
       style="fill:none"
       y="0"
       x="0"
       height="83"
       width="104"
       class="cls-7"
       data-name="&lt;Slice&gt;"
       id="_Slice_" />
  </g>
</svg>
